<svg id="Calque_1" data-name="Calque 1" xmlns="http://www.w3.org/2000/svg" viewBox="0 0 1249.69995 2005.62012"><defs><style>.cls-1{fill:#2b3a31;}.cls-2{fill:#3e604c;}</style></defs><title>BG_Dark</title><rect class="cls-1" width="1249.69995" height="2005.62012"/><path class="cls-2" d="M997.80805,1715.77408a793.76094,793.76094,0,0,1-53.42,287.27h-593.77V933.62369a788.56678,788.56678,0,0,1,110.87,29.43994c219.65,75.77051,395.74994,244.98047,480.82,460.12012A793.78655,793.78655,0,0,1,997.80805,1715.77408Z" transform="translate(-350.61811 2.57602)"/><path class="cls-2" d="M1600.31806-2.576V1265.50406a1078.79418,1078.79418,0,0,1-110.87-26.31006c-423.95-124.58007-740.28-500.64013-776.44-955.6101q-3.435-43.20008-3.46-87.30005A1093.08223,1093.08223,0,0,1,727.69807-2.576Z" transform="translate(-350.61811 2.57602)"/></svg>