<svg id="Calque_1" data-name="Calque 1" xmlns="http://www.w3.org/2000/svg" viewBox="0 0 656.33753 656.33753"><defs><style>.cls-1{fill:#f9f2e5;}</style></defs><title>cross</title><path class="cls-1" d="M1125.60464,705.99993,999.5,832.10457,873.39536,705.99993a118.36633,118.36633,0,0,0-167.39526,0l-.00017.00017a118.36633,118.36633,0,0,0,0,167.39526L832.10457,999.5,705.99993,1125.60464a118.36633,118.36633,0,0,0,0,167.39526l.00017.00017a118.36633,118.36633,0,0,0,167.39526,0L999.5,1166.89543l126.10464,126.10464a118.36633,118.36633,0,0,0,167.39526,0l.00017-.00017a118.36633,118.36633,0,0,0,0-167.39526L1166.89543,999.5l126.10464-126.10464a118.36633,118.36633,0,0,0,0-167.39526l-.00017-.00017A118.36633,118.36633,0,0,0,1125.60464,705.99993Z" transform="translate(-671.33124 -671.33124)"/></svg>