<svg id="Calque_1" data-name="Calque 1" xmlns="http://www.w3.org/2000/svg" viewBox="0 0 120 120"><defs><style>.cls-1{fill:#ffe269;}</style></defs><title>Leaderboard</title><path class="cls-1" d="M1053.88889,952h-18v-6a5.99207,5.99207,0,0,0-6-6h-60a5.99846,5.99846,0,0,0-6,6v6h-18a5.99846,5.99846,0,0,0-6,6v18c0,25.86011,10.80005,41.46,28.92,42a36.01617,36.01617,0,0,0,25.08,17.46V1048h-26.87a6,6,0,0,0,0,12h65.74a6.00472,6.00472,0,0,0,6-6,6.009,6.009,0,0,0-6-6h-26.87v-12.54a36.01616,36.01616,0,0,0,25.08-17.46c18-.6001,28.92-16.19995,28.92-42V958A5.99207,5.99207,0,0,0,1053.88889,952Zm-90,52.98c-10.68-4.5-12-21.17993-12-28.98V964h12Zm84-28.98c0,7.80005-1.32,24.48-12,28.98V964h12Z" transform="translate(-939.88889 -940)"/></svg>