<svg id="Calque_1" data-name="Calque 1" xmlns="http://www.w3.org/2000/svg" viewBox="0 0 469.26035 101.34051"><defs><style>.cls-1{fill:#609174;}.cls-2{fill:#f9f2e5;}</style></defs><title>Logo_Dark</title><path class="cls-1" d="M1223.12678,738.48472a37.70144,37.70144,0,0,0-34.7537-23.03744,38.01857,38.01857,0,0,0-5.41458.38477V705.71969a16.15651,16.15651,0,0,0-32.313,0v8.14748a16.14782,16.14782,0,0,0-32.28877.47853V717.011a16.03108,16.03108,0,0,0-6.88821-1.56375,37.52637,37.52637,0,0,0-13.18139,2.3704,16.07538,16.07538,0,0,0-19.94326,2.51506,16.09887,16.09887,0,0,0-11.553-4.88546v.00121a16.03256,16.03256,0,0,0-8.38849,2.36919,37.70447,37.70447,0,0,0-39.85684,8.67873,37.9333,37.9333,0,0,0-3.52227,4.06086,37.88568,37.88568,0,0,0-15.51119-12.14033,37.65485,37.65485,0,0,0-40.69,7.43741V705.71969a16.15681,16.15681,0,0,0-32.31361,0v10.11236a37.97858,37.97858,0,0,0-5.41217-.38477,37.756,37.756,0,0,0-31.23181,16.55945,37.77552,37.77552,0,0,0-4.55378-5.50851l-.00061-.0006h-.0006a37.76123,37.76123,0,0,0-39.85805-8.68055,16.01428,16.01428,0,0,0-15.64965-.62653,16.14558,16.14558,0,1,0-32.03519-3.0835,16.151,16.151,0,0,0-32.30029.23866v2.96481a16.15184,16.15184,0,0,0,0,28.58534v20.21926a24.8124,24.8124,0,0,0,24.78434,24.78434h4.31421a16.04854,16.04854,0,0,0,9.67238-3.2468,16.07229,16.07229,0,0,0,21.24973-1.66274,16.14028,16.14028,0,0,0,27.73248-11.24757V753.17246a5.41337,5.41337,0,1,1,10.82675,0v21.57109a16.146,16.146,0,0,0,31.187,5.88055,37.72962,37.72962,0,0,0,39.0427,7.90495,16.11634,16.11634,0,0,0,23.76546-8.84164,37.11482,37.11482,0,0,0,21.27692,10.80849,38.0783,38.0783,0,0,0,5.54486.4084,37.66526,37.66526,0,0,0,22.59148-7.54685,16.02112,16.02112,0,0,0,6.11633-9.66208,37.741,37.741,0,0,0,44.83023,14.83308,16.07314,16.07314,0,0,0,19.94281-2.51461,16.1416,16.1416,0,0,0,27.71113-11.2715V753.17246a5.41968,5.41968,0,0,1,5.41337-5.41338,16.03108,16.03108,0,0,0,6.88821-1.56375v19.91978a24.81292,24.81292,0,0,0,24.78494,24.78434h4.31422a16.04862,16.04862,0,0,0,9.67276-3.24687,16.12558,16.12558,0,0,0,25.82987-12.91024V753.17246a5.41459,5.41459,0,0,1,10.82917,0v21.57109a16.1553,16.1553,0,1,0,32.31059,0V753.17246A37.50653,37.50653,0,0,0,1223.12678,738.48472Zm-425.348-23.6592a16.17706,16.17706,0,0,0,.28554,2.649c-.096-.05325-.18837-.1121-.28554-.16345Z" transform="translate(-756.83791 -689.56379)"/><path class="cls-2" d="M800.17218,774.74234a5.60832,5.60832,0,0,1-5.60728,5.60909h-4.31421a14.25181,14.25181,0,0,1-14.23632-14.23632v-28.904h-3.02116a5.60788,5.60788,0,0,1,0-11.21576h3.02116V714.3457a5.60818,5.60818,0,0,1,11.21636,0v11.6496h3.02a5.60788,5.60788,0,0,1,0,11.21576h-3.02v28.904a3.02275,3.02275,0,0,0,3.02,3.02h4.31421A5.6087,5.6087,0,0,1,800.17218,774.74234Z" transform="translate(-756.83791 -689.56379)"/><path class="cls-2" d="M808.30254,714.34691A5.60879,5.60879,0,1,1,813.911,719.956,5.60844,5.60844,0,0,1,808.30254,714.34691Zm11.21757,17.25627v43.14037a5.60879,5.60879,0,0,1-11.21757,0V731.60318a5.60879,5.60879,0,0,1,11.21757,0Z" transform="translate(-756.83791 -689.56379)"/><path class="cls-2" d="M885.80942,753.17246v21.57109a5.60758,5.60758,0,1,1-11.21515,0V753.17246a15.9614,15.9614,0,1,0-31.9228,0v21.56988a5.60879,5.60879,0,1,1-11.21757,0V731.60318a5.60773,5.60773,0,0,1,11.2-.41627,27.16967,27.16967,0,0,1,43.15552,21.98555Z" transform="translate(-756.83791 -689.56379)"/><path class="cls-2" d="M948.27409,705.71969v69.02386a5.60771,5.60771,0,0,1-11.2.41567,27.19346,27.19346,0,1,1-.01757-43.98564V705.71969a5.60879,5.60879,0,0,1,11.21757,0Zm-11.21757,47.45277a15.9614,15.9614,0,1,0-15.96019,15.96261A15.97872,15.97872,0,0,0,937.05652,753.17246Z" transform="translate(-756.83791 -689.56379)"/><path class="cls-2" d="M1012.00274,753.17246a5.60883,5.60883,0,0,1-5.60728,5.60969h-36.5218a16.02642,16.02642,0,0,0,2.13954,3.91188,15.9617,15.9617,0,0,0,22.38789,3.249,5.60794,5.60794,0,1,1,6.72885,8.97321,27.12062,27.12062,0,0,1-16.26679,5.44,27.35028,27.35028,0,0,1-4.00277-.29509,27.18986,27.18986,0,1,1,31.14236-26.88873Zm-12.23312-5.60667a15.96324,15.96324,0,0,0-29.88929,0Z" transform="translate(-756.83791 -689.56379)"/><path class="cls-2" d="M1066.79089,725.9953a5.60728,5.60728,0,0,1,5.60727,5.60788v43.14037a5.60645,5.60645,0,0,1-11.19758.41567,27.19186,27.19186,0,1,1,0-43.97231,5.606,5.606,0,0,1,5.59031-5.19039Zm-5.60727,27.17716a15.96261,15.96261,0,1,0-15.96261,15.96261A15.9804,15.9804,0,0,0,1061.18362,753.17246Z" transform="translate(-756.83791 -689.56379)"/><path class="cls-2" d="M1117.077,731.60318a5.60909,5.60909,0,0,1-5.60848,5.60788,15.97833,15.97833,0,0,0-15.9614,15.9614v21.56988a5.60909,5.60909,0,1,1-11.21818,0V731.60318a5.60774,5.60774,0,0,1,11.2-.41627,27.05866,27.05866,0,0,1,15.97957-5.19161A5.60754,5.60754,0,0,1,1117.077,731.60318Z" transform="translate(-756.83791 -689.56379)"/><path class="cls-2" d="M1153.06314,774.74234a5.6087,5.6087,0,0,1-5.60727,5.60909h-4.31422a14.25272,14.25272,0,0,1-14.23692-14.23632v-28.904h-3.01995a5.60788,5.60788,0,1,1,0-11.21576h3.01995V714.3457a5.60849,5.60849,0,0,1,11.217,0v11.6496h3.02a5.60788,5.60788,0,0,1,0,11.21576h-3.02v28.904a3.02274,3.02274,0,0,0,3.02,3.02h4.31422A5.60908,5.60908,0,0,1,1153.06314,774.74234Z" transform="translate(-756.83791 -689.56379)"/><path class="cls-2" d="M1215.55024,753.17246v21.57109a5.60728,5.60728,0,1,1-11.21455,0V753.17246a15.96261,15.96261,0,0,0-31.92522,0v21.56988a5.60848,5.60848,0,1,1-11.217,0V705.71969a5.60848,5.60848,0,0,1,11.217,0v25.45389a27.17237,27.17237,0,0,1,43.13977,21.99888Z" transform="translate(-756.83791 -689.56379)"/><path class="cls-2" d="M1045.9399,751.94207a9.31057,9.31057,0,0,1,1.95236-8.93067,1.244,1.244,0,0,0-.71057-2.06852,12.381,12.381,0,1,0,8.13059,19.49609,1.24413,1.24413,0,0,0-.96278-1.966A9.29308,9.29308,0,0,1,1045.9399,751.94207Z" transform="translate(-756.83791 -689.56379)"/></svg>