<svg id="Calque_1" data-name="Calque 1" xmlns="http://www.w3.org/2000/svg" viewBox="0 0 109.21833 111.55674"><defs><style>.cls-1{fill:#f9f2e5;}</style></defs><title>Settings</title><path class="cls-1" d="M946.0293,1018.2451l11.15567,19.29931a5.57784,5.57784,0,0,0,7.61933,2.03591l7.78666-4.49573a45.036,45.036,0,0,0,10.57,6.20255v8.91339a5.57784,5.57784,0,0,0,5.57783,5.57784h22.31135a5.57784,5.57784,0,0,0,5.57784-5.57784v-8.91338a45.147,45.147,0,0,0,10.57-6.20255l7.78666,4.49573a5.59784,5.59784,0,0,0,7.61932-2.03591l11.15567-19.29931a5.60015,5.60015,0,0,0-2.03591-7.61933l-7.65279-4.42322a42.85437,42.85437,0,0,0-.01116-12.40511l7.65279-4.42323a5.5893,5.5893,0,0,0,2.03591-7.61932l-11.15567-19.29932a5.57784,5.57784,0,0,0-7.61932-2.03591l-7.78666,4.49574a44.81225,44.81225,0,0,0-10.56442-6.20256v-8.91338a5.57784,5.57784,0,0,0-5.57783-5.57784H988.73322a5.57784,5.57784,0,0,0-5.57784,5.57784v8.91338a45.147,45.147,0,0,0-10.57,6.20256l-7.78108-4.49574a5.57226,5.57226,0,0,0-7.61488,2.02823l-.00445.00768L946.0293,981.7549a5.60014,5.60014,0,0,0,2.03591,7.61932l7.65279,4.42323a42.85471,42.85471,0,0,0,0,12.40511l-7.65279,4.42322A5.58932,5.58932,0,0,0,946.0293,1018.2451Zm53.85959-40.55645A22.31135,22.31135,0,1,1,977.57754,1000,22.3338,22.3338,0,0,1,999.88889,977.68865Z" transform="translate(-945.28277 -944.22163)"/></svg>