<svg id="Calque_1" data-name="Calque 1" xmlns="http://www.w3.org/2000/svg" xmlns:xlink="http://www.w3.org/1999/xlink" viewBox="0 0 238.70963 238.70963"><defs><style>.cls-1{fill:#f9f2e5;}.cls-2{fill:url(#Dégradé_sans_nom_35);}</style><linearGradient id="Dégradé_sans_nom_35" x1="962.02573" y1="1026.75699" x2="1040.20183" y2="948.58089" gradientUnits="userSpaceOnUse"><stop offset="0" stop-color="#32f991"/><stop offset="1" stop-color="#6bffad"/></linearGradient></defs><title>Yes_Light</title><circle class="cls-1" cx="119.35482" cy="119.35482" r="119.35482"/><path class="cls-2" d="M1049.24007,957.79111a14.28159,14.28159,0,0,0-19.37468,1.995l-43.53179,51.39981-16.42121-19.38952a14.282,14.282,0,0,0-19.37468-1.995,12.647,12.647,0,0,0-2.10054,18.40131l27.11042,32.01087a14.04517,14.04517,0,0,0,10.74617,4.88529c.01331,0,.02646-.00153.03976-.0016s.02646.0016.03976.0016a14.04564,14.04564,0,0,0,10.74618-4.88529l54.22115-64.02115A12.647,12.647,0,0,0,1049.24007,957.79111Z" transform="translate(-880.53407 -880.64518)"/></svg>