<svg id="Calque_1" data-name="Calque 1" xmlns="http://www.w3.org/2000/svg" xmlns:xlink="http://www.w3.org/1999/xlink" viewBox="0 0 469.26035 101.34051"><defs><style>.cls-1{fill:#f9f2e5;}.cls-2{fill:#3e604c;}.cls-3{fill:url(#Dégradé_sans_nom_41);}.cls-4{fill:#49e889;}.cls-5{fill:#40bdf4;}.cls-6{fill:#32f991;}</style><linearGradient id="Dégradé_sans_nom_41" x1="957.64289" y1="753.1764" x2="1012.00274" y2="753.1764" gradientUnits="userSpaceOnUse"><stop offset="0" stop-color="#3e604c"/><stop offset="1" stop-color="#49e889"/></linearGradient></defs><title>Logo_Light</title><path class="cls-1" d="M1223.12678,738.48472a37.70144,37.70144,0,0,0-34.7537-23.03744,38.01857,38.01857,0,0,0-5.41458.38477V705.71969a16.15651,16.15651,0,0,0-32.313,0v8.14748a16.14782,16.14782,0,0,0-32.28877.47853V717.011a16.03108,16.03108,0,0,0-6.88821-1.56375,37.52637,37.52637,0,0,0-13.18139,2.3704,16.07538,16.07538,0,0,0-19.94326,2.51506,16.09887,16.09887,0,0,0-11.553-4.88546v.00121a16.03256,16.03256,0,0,0-8.38849,2.36919,37.70447,37.70447,0,0,0-39.85684,8.67873,37.9333,37.9333,0,0,0-3.52227,4.06086,37.88568,37.88568,0,0,0-15.51119-12.14033,37.65485,37.65485,0,0,0-40.69,7.43741V705.71969a16.15681,16.15681,0,0,0-32.31361,0v10.11236a37.97858,37.97858,0,0,0-5.41217-.38477,37.756,37.756,0,0,0-31.23181,16.55945,37.77552,37.77552,0,0,0-4.55378-5.50851l-.00061-.0006h-.0006a37.76123,37.76123,0,0,0-39.85805-8.68055,16.01428,16.01428,0,0,0-15.64965-.62653,16.14558,16.14558,0,1,0-32.03519-3.0835,16.151,16.151,0,0,0-32.30029.23866v2.96481a16.15184,16.15184,0,0,0,0,28.58534v20.21926a24.8124,24.8124,0,0,0,24.78434,24.78434h4.31421a16.04854,16.04854,0,0,0,9.67238-3.2468,16.07229,16.07229,0,0,0,21.24973-1.66274,16.14028,16.14028,0,0,0,27.73248-11.24757V753.17246a5.41337,5.41337,0,1,1,10.82675,0v21.57109a16.146,16.146,0,0,0,31.187,5.88055,37.72962,37.72962,0,0,0,39.0427,7.90495,16.11634,16.11634,0,0,0,23.76546-8.84164,37.11482,37.11482,0,0,0,21.27692,10.80849,38.0783,38.0783,0,0,0,5.54486.4084,37.66526,37.66526,0,0,0,22.59148-7.54685,16.02112,16.02112,0,0,0,6.11633-9.66208,37.741,37.741,0,0,0,44.83023,14.83308,16.07314,16.07314,0,0,0,19.94281-2.51461,16.1416,16.1416,0,0,0,27.71113-11.2715V753.17246a5.41968,5.41968,0,0,1,5.41337-5.41338,16.03108,16.03108,0,0,0,6.88821-1.56375v19.91978a24.81292,24.81292,0,0,0,24.78494,24.78434h4.31422a16.04862,16.04862,0,0,0,9.67276-3.24687,16.12558,16.12558,0,0,0,25.82987-12.91024V753.17246a5.41459,5.41459,0,0,1,10.82917,0v21.57109a16.1553,16.1553,0,1,0,32.31059,0V753.17246A37.50653,37.50653,0,0,0,1223.12678,738.48472Zm-425.348-23.6592a16.17706,16.17706,0,0,0,.28554,2.649c-.096-.05325-.18837-.1121-.28554-.16345Z" transform="translate(-756.83791 -689.56379)"/><path class="cls-2" d="M800.17218,774.74234a5.60832,5.60832,0,0,1-5.60728,5.60909h-4.31421a14.25181,14.25181,0,0,1-14.23632-14.23632v-28.904h-3.02116a5.60788,5.60788,0,0,1,0-11.21576h3.02116V714.3457a5.60818,5.60818,0,0,1,11.21636,0v11.6496h3.02a5.60788,5.60788,0,0,1,0,11.21576h-3.02v28.904a3.02275,3.02275,0,0,0,3.02,3.02h4.31421A5.6087,5.6087,0,0,1,800.17218,774.74234Z" transform="translate(-756.83791 -689.56379)"/><path class="cls-2" d="M808.30254,714.34691A5.60879,5.60879,0,1,1,813.911,719.956,5.60844,5.60844,0,0,1,808.30254,714.34691Zm11.21757,17.25627v43.14037a5.60879,5.60879,0,0,1-11.21757,0V731.60318a5.60879,5.60879,0,0,1,11.21757,0Z" transform="translate(-756.83791 -689.56379)"/><path class="cls-2" d="M885.80942,753.17246v21.57109a5.60758,5.60758,0,1,1-11.21515,0V753.17246a15.9614,15.9614,0,1,0-31.9228,0v21.56988a5.60879,5.60879,0,1,1-11.21757,0V731.60318a5.60773,5.60773,0,0,1,11.2-.41627,27.16967,27.16967,0,0,1,43.15552,21.98555Z" transform="translate(-756.83791 -689.56379)"/><path class="cls-2" d="M948.27409,705.71969v69.02386a5.60771,5.60771,0,0,1-11.2.41567,27.19346,27.19346,0,1,1-.01757-43.98564V705.71969a5.60879,5.60879,0,0,1,11.21757,0Zm-11.21757,47.45277a15.9614,15.9614,0,1,0-15.96019,15.96261A15.97872,15.97872,0,0,0,937.05652,753.17246Z" transform="translate(-756.83791 -689.56379)"/><path class="cls-3" d="M1012.00274,753.17246a5.60883,5.60883,0,0,1-5.60728,5.60969h-36.5218a16.02642,16.02642,0,0,0,2.13954,3.91188,15.9617,15.9617,0,0,0,22.38789,3.249,5.60794,5.60794,0,1,1,6.72885,8.97321,27.12062,27.12062,0,0,1-16.26679,5.44,27.35028,27.35028,0,0,1-4.00277-.29509,27.18986,27.18986,0,1,1,31.14236-26.88873Zm-12.23312-5.60667a15.96324,15.96324,0,0,0-29.88929,0Z" transform="translate(-756.83791 -689.56379)"/><path class="cls-4" d="M1066.79089,725.9953a5.60728,5.60728,0,0,1,5.60727,5.60788v43.14037a5.60645,5.60645,0,0,1-11.19758.41567,27.19186,27.19186,0,1,1,0-43.97231,5.606,5.606,0,0,1,5.59031-5.19039Zm-5.60727,27.17716a15.96261,15.96261,0,1,0-15.96261,15.96261A15.9804,15.9804,0,0,0,1061.18362,753.17246Z" transform="translate(-756.83791 -689.56379)"/><path class="cls-4" d="M1117.077,731.60318a5.60909,5.60909,0,0,1-5.60848,5.60788,15.97833,15.97833,0,0,0-15.9614,15.9614v21.56988a5.60909,5.60909,0,1,1-11.21818,0V731.60318a5.60774,5.60774,0,0,1,11.2-.41627,27.05866,27.05866,0,0,1,15.97957-5.19161A5.60754,5.60754,0,0,1,1117.077,731.60318Z" transform="translate(-756.83791 -689.56379)"/><path class="cls-4" d="M1153.06314,774.74234a5.6087,5.6087,0,0,1-5.60727,5.60909h-4.31422a14.25272,14.25272,0,0,1-14.23692-14.23632v-28.904h-3.01995a5.60788,5.60788,0,1,1,0-11.21576h3.01995V714.3457a5.60849,5.60849,0,0,1,11.217,0v11.6496h3.02a5.60788,5.60788,0,0,1,0,11.21576h-3.02v28.904a3.02274,3.02274,0,0,0,3.02,3.02h4.31422A5.60908,5.60908,0,0,1,1153.06314,774.74234Z" transform="translate(-756.83791 -689.56379)"/><path class="cls-4" d="M1215.55024,753.17246v21.57109a5.60728,5.60728,0,1,1-11.21455,0V753.17246a15.96261,15.96261,0,0,0-31.92522,0v21.56988a5.60848,5.60848,0,1,1-11.217,0V705.71969a5.60848,5.60848,0,0,1,11.217,0v25.45389a27.17237,27.17237,0,0,1,43.13977,21.99888Z" transform="translate(-756.83791 -689.56379)"/><path class="cls-5" d="M1059.26517,753.1a14.04241,14.04241,0,1,1-2.72509-8.242A14.02472,14.02472,0,0,1,1059.26517,753.1Z" transform="translate(-756.83791 -689.56379)"/><path class="cls-6" d="M1052.20715,756.67506a4.20476,4.20476,0,0,1-3.41731,1.99,9.66238,9.66238,0,0,1-4.02176-.75782,13.87757,13.87757,0,0,0-2.8969-.88793,3.54549,3.54549,0,0,0-2.85237.71818c-1.19127,1.08011-1.12334,2.99369-2.02362,4.32611a3.71951,3.71951,0,0,1-1.48692,1.25367,14.04607,14.04607,0,0,1-1.80793-18.17788,9.26311,9.26311,0,0,1,1.56633-.4,3.76816,3.76816,0,0,1,3.54055.907,5.5767,5.5767,0,0,1,.79428,3.242c.08653,1.12928.44807,2.42435,1.49761,2.85128a3.93753,3.93753,0,0,0,2.73745-.36489,9.58717,9.58717,0,0,1,4.202-.63535,5.403,5.403,0,0,1,3.70736,1.91189A3.7918,3.7918,0,0,1,1052.20715,756.67506Z" transform="translate(-756.83791 -689.56379)"/><path class="cls-6" d="M1056.54008,744.85793l-.11422.02956a27.167,27.167,0,0,1-2.75263.546,4.08994,4.08994,0,0,1-2.40729-.17377c-.91679-.4554-1.42634-1.49885-2.336-1.968-1.4436-.745-3.36757.1926-4.76147-.64137a2.97511,2.97511,0,0,1-1.21966-1.72241,4.67942,4.67942,0,0,1-.19461-1.58263,14.0652,14.0652,0,0,1,13.78591,5.5127Z" transform="translate(-756.83791 -689.56379)"/><path class="cls-6" d="M1053.50506,764.51545a13.981,13.981,0,0,1-4.5519,2.20111c-.025-.10618-.04531-.21149-.06166-.31294a1.80279,1.80279,0,0,1,.74013-1.86166,2.65977,2.65977,0,0,1,1.50173-.18942Q1052.31952,764.43369,1053.50506,764.51545Z" transform="translate(-756.83791 -689.56379)"/><path class="cls-1" d="M1060.26008,748.10609a15.80122,15.80122,0,0,0-2.25288-4.32794,15.93067,15.93067,0,0,0-5.5434-4.72448,15.80407,15.80407,0,0,0-7.32554-1.74622,15.97012,15.97012,0,0,0-2.70276.24424,15.70718,15.70718,0,0,0-5.81565,2.28726,15.93943,15.93943,0,0,0-4.41289,4.25732,15.84649,15.84649,0,0,0,.01754,18.17963,15.97083,15.97083,0,0,0,2.02391,2.3571,15.87067,15.87067,0,0,0,26.01167-16.52691Zm-6.755,16.40936a14.04543,14.04543,0,0,1-17.9968-1.19815q-.2044-.19574-.40072-.39971l6.43433-.03362a1.32885,1.32885,0,0,0,1.26609-1.71009l1.09082-.0057a1.3289,1.3289,0,1,0-.01389-2.65776l-7.0145.03665a1.32885,1.32885,0,0,0-1.26608,1.71009l-1.09082.0057a1.32684,1.32684,0,0,0-1.07452.557,14.05533,14.05533,0,0,1-.32236-14.77237,1.32329,1.32329,0,0,0,.86678.31609l7.01449-.03665a1.3289,1.3289,0,0,0-.01389-2.65776l-.2517.00131a1.32888,1.32888,0,0,0-1.22575-1.85846l-2.56029.01338a14.05015,14.05015,0,0,1,21.7999,15.14357,1.32623,1.32623,0,0,0-.44083-.07276l-4.07908.02131a1.3289,1.3289,0,1,0,.01388,2.65776l3.49359-.01825A14.10617,14.10617,0,0,1,1053.50507,764.51545Z" transform="translate(-756.83791 -689.56379)"/><path class="cls-1" d="M1052.069,752.19305l-7.0145.03665a1.32889,1.32889,0,1,1-.01388-2.65775l7.01449-.03665a1.32889,1.32889,0,1,1,.01389,2.65775Z" transform="translate(-756.83791 -689.56379)"/><path class="cls-1" d="M1051.04653,750.30518l-3.50724.01832a1.3289,1.3289,0,1,1-.01389-2.65776l3.50725-.01832a1.3289,1.3289,0,1,1,.01388,2.65776Z" transform="translate(-756.83791 -689.56379)"/></svg>