<svg id="Calque_1" data-name="Calque 1" xmlns="http://www.w3.org/2000/svg" viewBox="0 0 449.2207 449.2207"><defs><style>.cls-1{fill:#609174;}.cls-2{fill:#f9f2e5;}</style></defs><title>PFP_Dark</title><path class="cls-1" d="M1725.26979,1000.14891a196.61039,196.61039,0,0,1-393.22078,0c0-108.58382,88.02657-196.61032,196.61039-196.61032S1725.26979,891.56509,1725.26979,1000.14891Z" transform="translate(-1304.04907 -775.53857)"/><path class="cls-2" d="M1528.65942,803.53857c108.58387,0,196.61036,88.02649,196.61036,196.61036a196.61036,196.61036,0,0,1-393.22071,0c0-108.58387,88.02649-196.61036,196.61035-196.61036m0-28a223.996,223.996,0,1,0,87.43665,17.66272,223.22509,223.22509,0,0,0-87.43665-17.66272Z" transform="translate(-1304.04907 -775.53857)"/><path class="cls-2" d="M1665.17733,1141.62758a196.58964,196.58964,0,0,1-273.03585,0,139.05259,139.05259,0,0,1,273.03585,0Z" transform="translate(-1304.04907 -775.53857)"/><circle class="cls-2" cx="224.61033" cy="169.58409" r="61.83427"/></svg>