<svg id="Calque_1" data-name="Calque 1" xmlns="http://www.w3.org/2000/svg" viewBox="0 0 449.2207 449.2207"><defs><style>.cls-1{fill:#d8d7d6;}.cls-2{fill:#f9f2e5;}</style></defs><title>PFP_Light</title><path class="cls-1" d="M1725.27008,1000.14891a196.61039,196.61039,0,0,1-393.22078,0c0-108.58382,88.02657-196.61032,196.61039-196.61032S1725.27008,891.56509,1725.27008,1000.14891Z" transform="translate(-1304.04932 -775.53857)"/><path class="cls-2" d="M1528.65967,803.53857c108.58386,0,196.61035,88.02649,196.61035,196.61036a196.61035,196.61035,0,0,1-393.2207,0c0-108.58387,88.02661-196.61036,196.61035-196.61036m0-28a223.99607,223.99607,0,1,0,87.43664,17.66272,223.22561,223.22561,0,0,0-87.43664-17.66272Z" transform="translate(-1304.04932 -775.53857)"/><path class="cls-2" d="M1665.17761,1141.62758a196.58963,196.58963,0,0,1-273.03584,0,139.05259,139.05259,0,0,1,273.03584,0Z" transform="translate(-1304.04932 -775.53857)"/><circle class="cls-2" cx="224.61037" cy="169.58409" r="61.83427"/></svg>