<svg id="Calque_1" data-name="Calque 1" xmlns="http://www.w3.org/2000/svg" viewBox="0 0 141.20516 141.20516"><defs><style>.cls-1{fill:#f9f2e5;}</style></defs><title>Sun</title><path class="cls-1" d="M964.47406,996.77452a35.35417,35.35417,0,1,0,31.98128-31.98125A35.38889,35.38889,0,0,0,964.47406,996.77452Zm35.19153,52.64729h.00215a7.05918,7.05918,0,0,1,7.05918,7.05918v7.06241a7.05918,7.05918,0,0,1-7.05918,7.05918h-.00215a7.05918,7.05918,0,0,1-7.05918-7.05918V1056.481A7.05918,7.05918,0,0,1,999.66559,1049.42181Zm0-120.02439h.00215a7.05918,7.05918,0,0,1,7.05918,7.05918V943.519a7.05918,7.05918,0,0,1-7.05918,7.05918h-.00215a7.05918,7.05918,0,0,1-7.05918-7.05918V936.4566A7.05918,7.05918,0,0,1,999.66559,929.39742Zm-63.54232,63.54232h7.06241a7.05918,7.05918,0,0,1,7.05918,7.05918v.00216a7.05918,7.05918,0,0,1-7.05918,7.05918h-7.06241a7.05918,7.05918,0,0,1-7.05918-7.05918v-.00216A7.05918,7.05918,0,0,1,936.12327,992.93974Zm120.02439,0h7.0624a7.05919,7.05919,0,0,1,7.05919,7.05918v.00216a7.05919,7.05919,0,0,1-7.05919,7.05918h-7.0624a7.05919,7.05919,0,0,1-7.05919-7.05918v-.00216A7.05919,7.05919,0,0,1,1056.14766,992.93974Zm-106.397,56.98335h0a7.05917,7.05917,0,0,1,0-9.98319l4.99161-4.99162a7.05918,7.05918,0,0,1,9.98319,0h0a7.05918,7.05918,0,0,1,0,9.98319l-4.99162,4.99162A7.05918,7.05918,0,0,1,949.75065,1049.92309Zm84.85723-94.8475,4.99867-4.99868a7.0592,7.0592,0,0,1,9.9832,0h0a7.05918,7.05918,0,0,1,0,9.98319l-4.99868,4.99868a7.05918,7.05918,0,0,1-9.98319,0h0A7.05918,7.05918,0,0,1,1034.60788,955.07559Zm-79.86563,9.98791-4.9922-4.99456a7.05918,7.05918,0,0,1,.00294-9.98378l.00237-.00237a7.05919,7.05919,0,0,1,9.98378.00412l4.991,4.99574a7.05919,7.05919,0,0,1-.00235,9.98084l-.00119.00118A7.05919,7.05919,0,0,1,954.74225,965.0635Zm94.84751,84.85957h0a7.05918,7.05918,0,0,1-9.98319,0l-4.99868-4.99868a7.05918,7.05918,0,0,1,0-9.98319h0a7.05918,7.05918,0,0,1,9.98319,0l4.99868,4.99868A7.05918,7.05918,0,0,1,1049.58976,1049.92307Z" transform="translate(-929.06409 -929.39742)"/></svg>